<svg version="1.2" xmlns="http://www.w3.org/2000/svg" viewBox="0 0 275 194" width="275" height="194"><style>.a{opacity:1;fill:#fff}</style><path fill-rule="evenodd" class="a" d="m136 0.1c12.5-0.1 23.2 0.4 25.5 1 2.2 0.6 5.9 2 8.3 3.2 2.5 1.3 4.2 2.8 4 3.6-0.2 0.8-1.9 2.4-3.8 3.5-3.4 1.9-3.7 1.9-8 0.3-3.7-1.4-8.2-1.7-45.5-1.6l-3.5 4.4c-1.9 2.5-4 6-4.7 7.8-0.8 2.2-1.2 15.6-1.2 44.7-0.1 25.9 0.3 42.8 0.9 45 0.6 1.9 2.7 5.6 8.5 13h21c20.2 0 21.2-0.1 26-2.4 2.7-1.3 5.9-3.7 7-5.2 1.1-1.6 3.1-5.1 4.5-7.9 1.9-3.7 3.1-5.1 5-5.3 1.6-0.2 3 0.3 3.8 1.5 0.7 1 1.2 2.9 1.2 4.3 0 1.4-0.9 4.3-2.1 6.5-1.1 2.2-4 5.9-6.2 8.3-2.3 2.4-5.6 5.1-7.2 5.9-1.7 0.9-5.3 2.2-8 2.9-3.4 0.9-11.6 1.4-25.5 1.4-13.9 0-22.1-0.5-25.5-1.4-2.8-0.7-6.4-2-8-2.8-2.7-1.4-3.6-1.3-9.5 0.4-3.6 1.1-6.8 1.6-7.2 1.1-0.5-0.4 0.6-3.1 5.5-10.8l-1.7-4.5c-1-2.5-2.2-7.4-2.8-11-0.6-3.8-0.8-22-0.2-80.5l2.6-5.5c1.5-3 4.8-7.6 7.5-10.1 2.6-2.6 5.9-5.2 7.3-6 1.4-0.7 4.3-1.8 6.5-2.5q4-1.3 25.5-1.3zm-120.8 149c1.6-0.1 4.3 0.6 6 1.5 3.1 1.6 3.6 1.6 7.3-0.1 2.8-1.2 5.2-1.6 8-1.1 2.2 0.3 4.8 1.4 5.8 2.3 1.7 1.7 1.9 1.7 5-0.2 2.1-1.3 5-1.9 8.8-2 3.1 0 6.7 0.6 8 1.4 2.1 1.2 2.9 1.1 6.4-0.4 3.2-1.4 5.8-1.7 12.5-1.3 5.9 0.3 9.5 1 11.7 2.4 3.1 1.9 3.2 1.9 6 0 1.8-1.2 5.3-2 9.8-2.4 5.1-0.3 8 0 10.7 1.2 3.5 1.5 4.1 1.5 7.5 0 2.8-1.2 5.8-1.5 10.8-1.2 4.1 0.3 8.2 1.2 9.9 2.2 2.8 1.6 3.1 1.6 7-0.5 3.5-1.9 5.2-2.2 11.1-1.7 3.8 0.2 8.3 1.2 10 2 2.7 1.5 3.3 1.5 6 0 2.5-1.4 6.9-1.7 27.5-1.9 22.4-0.1 24.8 0 28.2 1.8 3.8 1.9 3.8 1.9 7.5-0.1 2.1-1.1 4.8-2 6-2 1.3 0 3.9 0.7 5.8 1.5 2 0.8 4.2 2.8 5 4.5 0.8 1.6 1.5 5.4 1.5 8.2-0.1 5 0.1 5.4 3.7 7.8 2.5 1.7 4.3 3.9 5.2 6.5 0.9 2.5 1.1 5.1 0.6 7-0.4 1.6-2.1 4.3-7 8.6l-35 0.1c-19.3 0-37.3 0.1-40 0-2.8 0-6.6-0.8-8.5-1.7-3.3-1.6-3.7-1.6-7 0.1-2.4 1.2-5.9 1.7-11 1.8-5.2 0-8.5-0.5-10.8-1.7-3-1.6-3.5-1.6-7-0.1-2.3 1-6.4 1.7-10.7 1.6-3.9 0-8.1-0.5-9.5-1.2-2.1-1-3.5-0.9-8 0.5-3.8 1.2-7 1.6-10.3 1.1-2.6-0.3-5.7-1.1-7-1.7-1.6-0.9-2.9-0.9-5.2 0-1.7 0.6-3.9 1.2-5 1.1-1.1 0-8.6 0-16.8 0-10 0-15.3-0.4-16.7-1.3-1.5-0.9-2.6-0.9-5.2 0-2.3 0.8-10.2 1.2-25.3 1-18.7-0.1-22.3-0.4-24-1.7-1.1-0.9-2.6-3.2-3.4-5.1-1.2-2.8-1.2-5.1-0.2-13.4 0.6-5.5 1.6-11.7 2.1-13.8 0.6-2 1.9-4.7 3.1-5.9 1.2-1.2 3.1-2.5 4.3-2.9 1.1-0.4 3.3-0.8 4.8-0.8zm-6.5 21.1c-0.9 5.7-1.7 10.9-1.7 11.5 0 0.7 0.7 2 1.5 2.8 0.8 0.8 2.4 1.5 3.4 1.5 1.1 0 2.7-0.7 3.5-1.5 0.9-0.8 1.6-3.1 1.6-5 0-1.9 0.4-3.7 1-4 0.5-0.3 1.8 1.9 2.8 4.7 1.3 4.1 2.2 5.4 4 5.5 1.8 0.3 2.5-0.5 3.9-4.6l1.8-4.9c2.1 4.9 3 7 3.4 7.8 0.5 0.8 1.9 1.6 3.2 1.8 1.3 0.1 3-0.2 3.6-0.8q1.3-1 3.3 0c1.1 0.5 2.9 1 4 1 1.1 0 2.6-0.9 3.2-2 0.9-1.4 2.4-2 4.8-2 2.3-0.1 4.2 0.7 5.5 2 1.1 1.1 2.9 2.1 4 2.1 1.1 0 2.6-0.7 3.2-1.6 1.2-1.3 1.5-1.3 3.5 0 1.3 0.8 3.2 1.5 4.3 1.5 1.2 0 2.6-0.6 3.3-1.3 0.7-0.6 1.2-2.4 1.2-4 0-1.5 0.4-2.9 1-3.2 0.5-0.3 1.7 0.1 2.5 0.7 0.9 0.7 1.6 2.2 1.5 3.3 0 1.1 0.5 2.6 1.2 3.3 0.7 0.7 2.4 1.2 3.8 1.3 1.4 0 3-0.6 3.7-1.3 0.7-0.7 1.4-2.5 1.5-4 0.2-1.9 0.7-2.4 1.8-1.8 0.8 0.4 1.8 1.5 2.2 2.4 0.5 0.9 2.5 2.3 4.5 3.2 2.1 0.9 6 1.6 8.8 1.5q5-0.1 6.8-1.8c1-1 1.8-2.4 1.7-3.1 0-0.6 0.6-1.5 1.2-1.9 0.7-0.3 1-0.2 0.5 0.3-0.4 0.5 1.2 2.1 3.5 3.6 3.4 2.2 5.5 2.8 10 2.8 3.2 0 7-0.6 8.5-1.4 1.6-0.8 3.7-2.5 4.8-3.8 1.1-1.2 2-3.5 2.3-6-0.3 2.8-0.1 2.9 2.7 1.9 2.1-0.6 3.7-0.6 5.2 0.2 1.3 0.6 3.2 1.1 4.3 1.1-1.1 0-3-0.5-4.3-1.1-1.4-0.7-3.2-0.8-4.8-0.3-2.3 0.8-2.5 1.2-1.8 3.9 0.5 1.7 1.9 3.5 3.3 4.2 1.4 0.7 5.5 1.3 9.1 1.3 6.1 0 6.7-0.2 10-3.5l3.5-3.5c4.3 4.7 7.1 6.5 9 7 1.9 0.6 4.8 1 6.5 1 1.6 0 4.5-0.9 6.2-2 3-1.8 3.4-1.8 4.5-0.5 1 1.2 3.3 1.6 10 1.5 7.4 0 8.9-0.3 9.7-1.8 0.8-1.6 1-1.6 2.5 0 1.3 1.4 3.3 1.8 9.4 1.8 4.9 0 8.2-0.5 9-1.3 1-0.9 1.5-0.9 2.4 0.1 0.8 0.8 4.1 1.2 8.8 1.2 4.8 0 8.1-0.5 8.8-1.3 0.7-0.6 1.2-2.1 1.3-3.2 0-1.1-0.6-2.6-1.3-3.2-0.7-0.7-3-1.6-5-2l-3.8-0.8c-0.5-17.8-0.6-18-3.3-19-1.9-0.7-3.3-0.7-4.5 0.1-1.3 0.9-1.8 3.1-2.2 10.8-0.3 5.3-0.7 9.6-1 9.7-0.3 0-2.4-0.4-4.8-0.8l-4.2-0.8c0-12-0.5-16.4-1-17.5-0.6-1.3-2-2-3.8-2-1.5 0-3.5 0.8-4.5 1.8-1.8 1.6-1.9 1.6-2.8-0.1-0.8-1.4-2.3-1.7-9.9-1.7-7.7 0-9.2 0.3-10.3 1.9-1.2 1.9-1.3 1.9-3.7-0.1-2-1.6-3.7-1.9-8.5-1.6-3.9 0.2-6.9 1-8.7 2.3-1.4 1.1-3.3 3.2-4.2 4.7-0.9 1.6-1.6 3.7-1.6 4.8 0 1.1-0.5 2.2-1 2.5-0.6 0.3-2.9-0.3-5.3-1.4-2.3-1-5.1-2.1-6.2-2.5-1.4-0.4-1.7-1-1-1.7 0.7-0.7 2.1-0.7 4.7 0.3 3.3 1.1 4 1.1 5.4-0.2 1.1-1 1.4-2.4 1-4.3-0.4-1.9-1.5-3-3.9-3.7-1.7-0.6-4.9-1-7-1-2 0-4.8 0.4-6.2 1-1.4 0.5-3.2 2.3-4 4-0.8 1.6-2 3-2.5 3-0.6 0-2-1.2-3.3-2.7-1.2-1.4-3.7-3.2-5.5-4-1.7-0.7-4.8-1.3-6.7-1.3-1.9 0-5 0.6-6.8 1.3-1.7 0.8-4.1 2.5-5.2 4-1.1 1.4-2.4 2.3-2.8 1.9-0.4-0.4-0.7-1.5-0.7-2.5 0-0.9-1-2.4-2.3-3.2-1.2-0.8-4.2-1.5-6.7-1.5-2.5 0-6.1 0.8-8 1.8-1.9 0.9-4.6 3.4-6 5.6l-2.5 3.8c-1.1-5.2-2.4-7.5-3.7-8.4-1.3-0.9-3.7-1.9-5.3-2.2-1.7-0.4-5.3-0.6-8-0.6-2.8 0-5.7 0.5-6.5 1-1.1 0.7-1.6 3.5-2 10.2-0.3 5.4-0.9 9.2-1.5 9.1-0.6-0.1-2.2-4-3.8-8.7-1.8-5.7-3.5-9.1-5-10.2-1.5-1-3.4-1.4-6-1-2.8 0.5-4 1.3-5 3.3-0.8 1.6-2.4 6-3.8 10-2 5.9-2.6 6.8-3.5 5.5-0.6-1-1.4-4.6-1.8-8.2-0.3-4.1-1.3-7.4-2.5-9-1.7-2.2-2.3-2.4-4.8-1.5-2 0.7-3.5 2.5-5.3 6.3-1.4 2.9-2.8 5.2-3.3 5.2-0.4 0-1.8-2.4-3-5.3-1.3-2.8-3.1-5.5-4-6-1-0.4-2.3-0.7-3.1-0.7-0.7 0-2 0.9-2.8 2-0.8 1-2.2 6.5-3.1 12.2zm144.2 3.8c0-1.2 0.2-2.4 0.4-3.4-0.1 1.1-0.3 2.4-0.4 3.5q0-0.1 0-0.1zm0.4-3.4q0.2-0.8 0.3-1.4c0.2-1.2 0.6-2.2 0.9-2.2q0.1 0 0.2 0.2-0.2 0.3-0.5 0.8c-0.3 0.4-0.6 1.4-0.9 2.6zm1.4-2.6c-0.2 0.8 1 2.5 2.7 3.8-1.7-1.3-2.9-2.9-2.8-3.6 0.1-0.4 0.1-0.8 0.1-1 0.3-0.4 0.3-0.2 0 0.8zm27.3-152c0.8 0 3.3 0.9 5.5 1.8 2.4 1.1 5.4 3.8 7.6 6.8 2 2.7 4.3 6.2 5.2 7.9 1 2.1 1.2 3.7 0.6 5.2-0.5 1.3-1.8 2.3-2.9 2.3-1.4 0-3.4-2.1-6.4-6.8-2.4-3.7-5.4-7.2-6.7-7.9-1.9-0.9-3.1-0.8-5.8 0.5-2.1 1.1-4.9 4.1-7.5 8-2.2 3.4-4.8 6.3-5.6 6.3-0.8-0.1-2.1-0.6-2.8-1.3-0.7-0.7-1.2-2.3-1.2-3.6 0-1.2 2.1-5 4.7-8.5 3.2-4 6.4-7 9.3-8.5 2.5-1.2 5.2-2.2 6-2.2zm-45.5 1.4c4.9 0 7.2 0.1 5 0.3-2.2 0.2-6.3 0.2-9 0-2.8-0.2-1-0.3 4-0.3zm44.7 24.6c12.2 0 15.5 0.3 19 1.8 2.4 1.1 5.8 3.5 7.5 5.5 1.8 2.1 3.6 4.9 4 6.4 0.5 1.6 0.8 8.2 0.8 14.9 0 10.2-0.3 12.6-2 15.7-2 3.6-2 3.9-0.3 10.5 1 3.7 1.5 6.9 1.3 7.2-0.3 0.3-4.4-1.4-17.5-8h-13.8c-9.5 0-14.8-0.4-17.2-1.4-1.9-0.7-5-2.8-6.8-4.5-1.7-1.7-3.6-4.8-4.2-6.9-0.5-2-1-8.5-1-14.5 0-7.4 0.5-11.8 1.6-14.5 0.8-2 2.5-4.8 3.7-6.1 1.2-1.3 4-3.2 6.2-4.2 3.3-1.5 6.6-1.9 18.7-1.9zm-17.8 13.8c-2.3 2.5-2.5 3.4-2.4 13.9v11.3c5.9 4.9 6.5 5 20.7 5 14.5 0.1 14.9 0 17.5-2.5 1.6-1.4 3.1-4 3.4-5.8 0.3-1.7 0.4-6.9 0.2-11.4-0.3-7.2-0.6-8.6-2.8-10.7-2.2-2.3-3.5-2.5-12.5-2.9-5.5-0.3-12.6-0.3-15.8 0-4.7 0.3-6.3 0.9-8.3 3.1zm-27.5 44.2c1.4 0 3.4 0.8 4.4 1.8 1 0.9 1.8 2.6 1.7 3.7 0 1.1-0.7 3-1.5 4.2-1 1.5-2.5 2.3-4.3 2.3-1.5 0-3.5-0.8-4.5-1.8-1-0.9-1.8-2.8-1.9-4.1-0.1-1.4 0.7-3.3 1.7-4.3 1-1 3-1.8 4.4-1.8zm17 74.1q-0.1 0.4-0.1 0.7 0-0.1 0-0.2 0-0.3 0.1-0.5zm73.7-13.1c0.2 0 0.4 4.5 0.4 20l-2.3-1.5c-1.2-0.8-3.9-1.5-6-1.5q-3.7 0-3.4-1.3c0.2-0.6 1.9-1.2 3.8-1.3 1.9 0 4-0.4 4.6-0.7 0.7-0.4 1.3-1.7 1.3-3 0.1-1.2-0.5-2.7-1.2-3.4-0.7-0.6-2.8-1.3-4.6-1.5-1.8-0.2-3.4-0.8-3.5-1.3-0.1-0.6 2-1.3 4.8-1.6 2.7-0.3 5.1-1.1 5.3-1.7 0.2-0.7 0.5-1.2 0.8-1.2zm-104.9 3.2c0.2 0.2 0.5 3.2 0.8 13.3l-6.3-0.3c-5.2-0.2-6.5-0.6-7.7-2.5-0.8-1.2-1.5-3-1.5-4 0-0.9 1-2.7 2.2-3.9 1.9-1.7 3-2 6.5-1.5 2.7 0.5 4.6 0.3 5-0.4 0.3-0.6 0.8-0.9 1-0.7zm82.5 0.3c0.5 0.4 1 3.4 0.8 13l-6.3-0.4c-3.4-0.2-6.8-0.8-7.5-1.5-0.7-0.6-1.3-2.6-1.2-4.4 0-2.1 0.7-3.7 2.1-4.6 1.3-0.9 3.4-1.2 5.7-0.9 2.3 0.4 4 0.1 4.5-0.6 0.5-0.6 1.3-0.9 1.9-0.6zm-121.2 0.5c1.1 0 2.2 0.6 2.4 1.2 0.3 0.7 0 2.2-0.7 3.2-0.7 1-1.8 1.6-2.5 1.3-0.6-0.4-1.2-1.8-1.2-3.2 0-1.8 0.5-2.5 2-2.5zm54.5 0c1.4 0 3.2 0.7 4 1.5 0.8 0.8 1.5 2.8 1.5 4.5 0 1.7-0.9 3.9-2 5-1.1 1.1-2.5 2-3 2-0.6 0-1.9-0.5-3-1-1.1-0.6-2.2-2.4-2.6-4.3-0.3-2.1 0-4 1.1-5.5 0.9-1.3 2.6-2.2 4-2.2zm-81.1 4.2c0.6 0.3 1.2 1.4 1.3 2.6 0.2 1.4-0.3 2.2-1.2 2.2-1 0-1.5-0.9-1.4-2.6 0.1-1.4 0.6-2.4 1.3-2.2zm39.6 2.3c0.8 1.3 0.9 2.3 0.2 3q-1 1-1.6-0.3c-0.3-0.6-0.2-1.2 0.4-1.2 0.5 0 0.7-0.8 0.4-1.8-0.4-1.2-0.2-1.1 0.6 0.3zm85.9-109.5c5.1 0.1 6.9 0.5 7.8 1.8 0.7 0.9 1.2 2.4 1.2 3.2 0 0.8-0.7 2.3-1.7 3.3-1.2 1.3-3.2 1.8-7 1.7-2.8 0-6.1-0.5-7.2-1-1.2-0.6-2.1-2.1-2.2-3.8-0.1-1.5 0.4-3.3 1.2-4 0.8-0.7 4.2-1.2 7.9-1.2z"/></svg>